<mxfile host="Electron" modified="2023-08-08T10:52:21.062Z" agent="Mozilla/5.0 (Windows NT 10.0; Win64; x64) AppleWebKit/537.36 (KHTML, like Gecko) draw.io/21.6.5 Chrome/114.0.5735.243 Electron/25.3.1 Safari/537.36" etag="IDELON7A5Il1FX-5n51v" version="21.6.5" type="device">
  <diagram name="LoginProcess" id="sl4_8i4WRTXogYIlklbk">
    <mxGraphModel dx="1658" dy="820" grid="1" gridSize="10" guides="1" tooltips="1" connect="1" arrows="1" fold="1" page="1" pageScale="1" pageWidth="827" pageHeight="1169" math="0" shadow="0">
      <root>
        <mxCell id="0" />
        <mxCell id="1" parent="0" />
        <mxCell id="T3Wvk6R9eVHVh8rvEJ1k-1" value="" style="ellipse;html=1;shape=startState;fillColor=#000000;strokeColor=#ff0000;" parent="1" vertex="1">
          <mxGeometry x="384" y="30" width="30" height="30" as="geometry" />
        </mxCell>
        <mxCell id="T3Wvk6R9eVHVh8rvEJ1k-2" value="" style="edgeStyle=orthogonalEdgeStyle;html=1;verticalAlign=bottom;endArrow=open;endSize=8;strokeColor=#ff0000;rounded=0;" parent="1" source="T3Wvk6R9eVHVh8rvEJ1k-1" edge="1">
          <mxGeometry relative="1" as="geometry">
            <mxPoint x="399" y="120" as="targetPoint" />
          </mxGeometry>
        </mxCell>
        <mxCell id="T3Wvk6R9eVHVh8rvEJ1k-5" style="edgeStyle=orthogonalEdgeStyle;rounded=0;orthogonalLoop=1;jettySize=auto;html=1;entryX=0.5;entryY=0;entryDx=0;entryDy=0;" parent="1" source="T3Wvk6R9eVHVh8rvEJ1k-3" target="T3Wvk6R9eVHVh8rvEJ1k-4" edge="1">
          <mxGeometry relative="1" as="geometry" />
        </mxCell>
        <mxCell id="T3Wvk6R9eVHVh8rvEJ1k-3" value="Request user credentias" style="rounded=1;whiteSpace=wrap;html=1;" parent="1" vertex="1">
          <mxGeometry x="339" y="120" width="120" height="60" as="geometry" />
        </mxCell>
        <mxCell id="T3Wvk6R9eVHVh8rvEJ1k-9" style="edgeStyle=orthogonalEdgeStyle;rounded=0;orthogonalLoop=1;jettySize=auto;html=1;exitX=1;exitY=0.5;exitDx=0;exitDy=0;entryX=1;entryY=0.5;entryDx=0;entryDy=0;" parent="1" source="T3Wvk6R9eVHVh8rvEJ1k-4" target="T3Wvk6R9eVHVh8rvEJ1k-3" edge="1">
          <mxGeometry relative="1" as="geometry">
            <Array as="points">
              <mxPoint x="480" y="260" />
              <mxPoint x="480" y="150" />
            </Array>
          </mxGeometry>
        </mxCell>
        <mxCell id="T3Wvk6R9eVHVh8rvEJ1k-11" value="No" style="edgeLabel;html=1;align=center;verticalAlign=middle;resizable=0;points=[];" parent="T3Wvk6R9eVHVh8rvEJ1k-9" vertex="1" connectable="0">
          <mxGeometry x="-0.6875" y="1" relative="1" as="geometry">
            <mxPoint as="offset" />
          </mxGeometry>
        </mxCell>
        <mxCell id="T3Wvk6R9eVHVh8rvEJ1k-13" style="edgeStyle=orthogonalEdgeStyle;rounded=0;orthogonalLoop=1;jettySize=auto;html=1;entryX=0.5;entryY=0;entryDx=0;entryDy=0;" parent="1" source="T3Wvk6R9eVHVh8rvEJ1k-4" target="T3Wvk6R9eVHVh8rvEJ1k-12" edge="1">
          <mxGeometry relative="1" as="geometry" />
        </mxCell>
        <mxCell id="T3Wvk6R9eVHVh8rvEJ1k-4" value="" style="rhombus;whiteSpace=wrap;html=1;" parent="1" vertex="1">
          <mxGeometry x="379" y="240" width="40" height="40" as="geometry" />
        </mxCell>
        <mxCell id="T3Wvk6R9eVHVh8rvEJ1k-6" value="Credentials&lt;br&gt;valid?" style="text;html=1;align=center;verticalAlign=middle;resizable=0;points=[];autosize=1;strokeColor=none;fillColor=none;" parent="1" vertex="1">
          <mxGeometry x="299" y="240" width="80" height="40" as="geometry" />
        </mxCell>
        <mxCell id="T3Wvk6R9eVHVh8rvEJ1k-15" style="edgeStyle=orthogonalEdgeStyle;rounded=0;orthogonalLoop=1;jettySize=auto;html=1;entryX=0.5;entryY=0;entryDx=0;entryDy=0;" parent="1" source="T3Wvk6R9eVHVh8rvEJ1k-12" target="T3Wvk6R9eVHVh8rvEJ1k-14" edge="1">
          <mxGeometry relative="1" as="geometry" />
        </mxCell>
        <mxCell id="T3Wvk6R9eVHVh8rvEJ1k-12" value="Save User object in Session class" style="rounded=1;whiteSpace=wrap;html=1;" parent="1" vertex="1">
          <mxGeometry x="339" y="360" width="120" height="60" as="geometry" />
        </mxCell>
        <mxCell id="T3Wvk6R9eVHVh8rvEJ1k-14" value="Display relevant interface based on user type" style="rounded=1;whiteSpace=wrap;html=1;" parent="1" vertex="1">
          <mxGeometry x="339" y="510" width="120" height="60" as="geometry" />
        </mxCell>
      </root>
    </mxGraphModel>
  </diagram>
</mxfile>
